<svg width="65" height="65" viewBox="0 0 65 65" fill="none" xmlns="http://www.w3.org/2000/svg">
<mask id="mask0_175_3852" style="mask-type:luminance" maskUnits="userSpaceOnUse" x="5" y="5" width="55" height="55">
<path d="M46.8438 5.5H18.1562C11.1664 5.5 5.5 11.1664 5.5 18.1562V46.8438C5.5 53.8336 11.1664 59.5 18.1562 59.5H46.8438C53.8336 59.5 59.5 53.8336 59.5 46.8438V18.1562C59.5 11.1664 53.8336 5.5 46.8438 5.5Z" fill="white"/>
</mask>
<g mask="url(#mask0_175_3852)">
<path d="M46.8438 5.5H18.1562C11.1664 5.5 5.5 11.1664 5.5 18.1562V46.8438C5.5 53.8336 11.1664 59.5 18.1562 59.5H46.8438C53.8336 59.5 59.5 53.8336 59.5 46.8438V18.1562C59.5 11.1664 53.8336 5.5 46.8438 5.5Z" fill="#59B943"/>
<path fillRule="evenodd" clipRule="evenodd" d="M54.8121 4.23438H59.5V60.5547H59.0642C59.1187 60.5549 59.1727 60.5443 59.2231 60.5236C59.2734 60.5029 59.3192 60.4724 59.3578 60.4339C59.3964 60.3954 59.427 60.3497 59.4478 60.2994C59.4687 60.2491 59.4794 60.1951 59.4793 60.1406V12.6162C59.5122 12.5194 59.5052 12.4136 59.4601 12.3219C59.4149 12.2303 59.3352 12.1603 59.2384 12.1274C59.1416 12.0946 59.0357 12.1014 58.9439 12.1465C58.8522 12.1915 58.7819 12.271 58.7486 12.3677L41.3092 31.8976C41.2593 31.9513 41.199 31.9942 41.1318 32.0235C41.0646 32.0529 40.9921 32.068 40.9188 32.068C40.8455 32.068 40.773 32.0529 40.7059 32.0235C40.6387 31.9942 40.5783 31.9513 40.5285 31.8976L31.6261 22.7372C31.5507 22.6433 31.5096 22.5264 31.5096 22.406C31.5096 22.2856 31.5507 22.1688 31.6261 22.0748L34.5657 18.3145C34.615 18.246 34.6799 18.1903 34.755 18.1519C34.8301 18.1134 34.9132 18.0934 34.9976 18.0934C35.082 18.0934 35.1651 18.1134 35.2402 18.1519C35.3153 18.1903 35.3802 18.246 35.4295 18.3145L40.4123 23.814C40.4622 23.8732 40.5245 23.9208 40.5948 23.9535C40.6651 23.9862 40.7417 24.0031 40.8192 24.0031C40.8967 24.0031 40.9732 23.9862 41.0435 23.9535C41.1138 23.9208 41.1761 23.8732 41.2261 23.814L55.1112 4.8307C55.1498 4.77459 55.1726 4.7092 55.1775 4.64127C55.1819 4.57338 55.1682 4.50552 55.1377 4.44471C55.1072 4.38389 55.061 4.33233 55.0039 4.29534C54.9465 4.25828 54.8803 4.23724 54.8121 4.23438ZM5.91513 4.23438H5.5V4.64845C5.5 4.53876 5.54366 4.43329 5.62171 4.35566C5.69955 4.27804 5.80523 4.23438 5.91513 4.23438ZM5.5 60.1406V60.5547H5.91513C5.80513 60.5546 5.69963 60.511 5.62171 60.4334C5.58317 60.395 5.55257 60.3494 5.53169 60.2991C5.5108 60.2489 5.50004 60.195 5.5 60.1406ZM41.1417 39.8912C40.1116 39.8597 39.1071 40.2149 38.3259 40.8871C37.5473 41.5566 37.0502 42.4953 36.9339 43.5156C36.9289 43.5353 36.9285 43.556 36.9328 43.5759C36.9371 43.5959 36.9459 43.6146 36.9586 43.6305C36.9715 43.6464 36.9879 43.6591 37.0065 43.6676C37.0252 43.6762 37.0455 43.6803 37.066 43.6797H45.2341C45.2529 43.6797 45.2714 43.6758 45.2886 43.6682C45.3058 43.6606 45.3212 43.6495 45.3339 43.6356C45.3464 43.6217 45.3558 43.6052 45.3614 43.5874C45.3669 43.5695 45.3686 43.5506 45.3661 43.532C45.285 42.4933 44.7962 41.5288 44.0064 40.8491C43.2138 40.1669 42.1852 39.823 41.1417 39.8912ZM11.0141 51.0631C13.6411 53.3638 17.0603 54.5519 20.5479 54.3761H20.531C26.826 54.3761 29.8654 51.1625 29.8654 46.9549C29.8654 41.6779 24.955 40.5023 21.082 39.5751C18.5604 38.9711 16.4787 38.4729 16.4787 37.0162C16.4787 35.6246 17.6745 34.6805 19.8003 34.6805C22.1138 34.6586 24.3648 35.4303 26.1782 36.867C26.2318 36.9129 26.2942 36.9472 26.3616 36.9679C26.4289 36.9886 26.4999 36.9952 26.5699 36.9873C26.6399 36.9794 26.7075 36.9573 26.7687 36.9224C26.8299 36.8875 26.8832 36.8404 26.9256 36.7841L28.9685 33.9517C29.0607 33.8561 29.1123 33.7284 29.1123 33.5955C29.1123 33.4626 29.0607 33.335 28.9685 33.2393C26.5092 31.2468 23.412 30.2112 20.2487 30.324C14.7346 30.324 11.4128 33.5376 11.4128 37.3971C11.4128 42.5866 16.1376 43.7056 19.9802 44.6156C22.6138 45.2394 24.8328 45.7648 24.8328 47.4354C24.8328 48.7605 23.5041 50.0194 20.7803 50.0194C18.1953 50.0279 15.703 49.0572 13.8046 47.3027C13.7163 47.2488 13.6137 47.2228 13.5103 47.2281C13.407 47.2334 13.3076 47.2697 13.2252 47.3323C13.1705 47.3737 13.1246 47.4256 13.0902 47.485L11.0141 50.3839C10.9313 50.4776 10.8855 50.5984 10.8855 50.7235C10.8855 50.8486 10.9313 50.9694 11.0141 51.0631ZM49.7823 46.4892C49.8049 46.4318 49.8152 46.3704 49.8129 46.309L49.7962 45.7789C49.7962 40.1302 46.2917 36.2707 41.1263 36.2707C39.9345 36.2501 38.7508 36.4706 37.6465 36.9191C36.5429 37.3673 35.5416 38.0344 34.7028 38.88C33.8648 39.7249 33.207 40.731 32.7692 41.8376C32.3318 42.9433 32.1237 44.1264 32.1574 45.3151C32.1094 46.5329 32.3169 47.7473 32.7666 48.8801C33.2169 50.0136 33.8993 51.0405 34.7699 51.8946C35.6414 52.7497 36.6819 53.4133 37.8247 53.8431C38.9682 54.2734 40.1888 54.4605 41.4087 54.3926C43.8501 54.4542 46.2436 53.709 48.2184 52.2722C48.3081 52.2007 48.368 52.0983 48.3864 51.985C48.4048 51.8718 48.3804 51.7557 48.318 51.6595L46.8233 49.4893C46.771 49.4093 46.6945 49.348 46.605 49.3144C46.5155 49.2807 46.4176 49.2765 46.3255 49.3022C46.2643 49.3193 46.2076 49.3493 46.1588 49.39C44.9109 50.2651 43.4309 50.7495 41.907 50.7815C40.7457 50.8772 39.5905 50.536 38.6676 49.8247C37.746 49.1145 37.124 48.0847 36.9242 46.9385C36.9218 46.9188 36.9235 46.899 36.9289 46.88C36.9344 46.861 36.9436 46.8433 36.9561 46.8279C36.9684 46.8125 36.9837 46.7997 37.0011 46.7903C37.0184 46.7808 37.0374 46.7749 37.0571 46.7729H49.3478C49.4096 46.7752 49.471 46.7646 49.5286 46.7423C49.5861 46.7199 49.6383 46.6859 49.682 46.6423C49.7257 46.5988 49.7598 46.5466 49.7823 46.4892Z" fill="white"/>
</g>
</svg>
